<svg width="88" height="89" viewBox="0 0 88 89" fill="none" xmlns="http://www.w3.org/2000/svg">
<path d="M73.1104 41.9926C72.424 41.9926 71.7552 41.9222 71.0864 41.799C70.5936 41.8694 70.0656 41.9222 69.52 41.9398H54.824C54.472 41.9398 54.1904 41.6582 54.1904 41.3062C54.1904 40.9542 54.472 40.6726 54.824 40.6726H69.4848C69.9952 40.655 70.5056 40.6022 70.9984 40.5318C71.0688 40.5142 71.1392 40.5142 71.2272 40.5318C71.8432 40.655 72.4768 40.7254 73.1104 40.7254C78.3376 40.7254 82.5968 36.4662 82.5968 31.239C82.5968 26.0118 78.3376 21.7526 73.1104 21.7526C72.6176 21.7526 72.1424 21.7878 71.6672 21.8582C71.4912 21.8934 71.2976 21.823 71.1568 21.6998C71.016 21.5766 70.9456 21.4006 70.9456 21.207C70.9456 15.8742 66.6864 11.615 61.4592 11.615C59.7696 11.615 58.1152 12.055 56.672 12.8998C55.3168 13.4454 54.1376 14.2198 53.0992 15.2406C52.888 15.4342 52.5712 15.4694 52.3248 15.3286C51.1808 14.6246 49.8432 14.255 48.488 14.255C45.3552 14.255 42.5744 16.2438 41.536 19.2006C41.4304 19.535 41.0608 19.711 40.7264 19.5878C40.392 19.4822 40.216 19.1126 40.3392 18.7782C41.536 15.3286 44.8096 12.9878 48.4704 12.9878C49.896 12.9878 51.2864 13.3398 52.536 14.0086C53.6096 13.0406 54.8064 12.2838 56.0912 11.7734C57.64 10.8582 59.5232 10.3478 61.424 10.3478C67.1616 10.3478 71.8432 14.8534 72.16 20.503C72.4592 20.4678 72.776 20.4678 73.0752 20.4678C79.0064 20.4678 83.8288 25.2902 83.8288 31.2214C83.8288 37.1526 79.0416 41.9926 73.1104 41.9926Z" fill="#928F8F"/>
<path d="M17.2126 47.3782C11.2814 47.3782 6.45898 42.5558 6.45898 36.6246C6.45898 30.6934 11.2814 25.871 17.2126 25.871C17.5294 25.871 17.8286 25.8886 18.1454 25.9062C18.4974 20.2038 23.179 15.751 28.8814 15.751C30.7822 15.751 32.6654 16.2614 34.3022 17.2118C35.5166 17.687 36.6958 18.4438 37.7694 19.4118C39.019 18.743 40.4094 18.391 41.835 18.391C46.587 18.391 50.4414 22.263 50.4414 26.9974C50.4414 27.4902 50.4062 28.0006 50.3182 28.4934C54.5422 31.0102 56.0558 34.7766 56.0558 37.2934C56.3726 46.3222 47.115 47.3078 47.027 47.3078H20.8382C20.275 47.2902 19.747 47.2374 19.2542 47.167C18.5678 47.3078 17.8814 47.3782 17.2126 47.3782ZM17.2126 27.1382C11.9854 27.1382 7.72618 31.3974 7.72618 36.6246C7.72618 41.8518 11.9854 46.111 17.2126 46.111C17.8462 46.111 18.4798 46.0406 19.0958 45.9174C19.1662 45.8998 19.2366 45.8998 19.3246 45.9174C19.7998 45.9878 20.3278 46.0406 20.8558 46.0582H46.9566C47.2382 46.023 55.0526 45.1782 54.7886 37.311C54.7886 35.463 53.627 31.7494 49.2974 29.3558C49.051 29.215 48.9278 28.9334 48.9806 28.6694C49.1038 28.1238 49.1742 27.5606 49.1742 26.9974C49.1742 22.9494 45.883 19.6406 41.8174 19.6406C40.4622 19.6406 39.1422 20.0102 37.9806 20.7142C37.7342 20.8726 37.4174 20.8374 37.2062 20.6262C36.1678 19.6054 34.9886 18.831 33.7214 18.3206C32.1902 17.4406 30.5358 16.983 28.8462 16.983C23.619 16.983 19.3598 21.2422 19.3598 26.4694C19.3598 26.6454 19.2718 26.8918 19.1486 26.9974C19.0078 27.1206 18.8494 27.2262 18.6382 27.2086C18.1806 27.1734 17.6878 27.1382 17.2126 27.1382Z" fill="#928F8F"/>
<path d="M29.2686 71.6486C31.2926 71.6486 32.9294 73.2854 32.9294 75.3094C32.9294 77.3334 31.2926 78.9702 29.2686 78.9702C27.2446 78.9702 25.6078 77.3334 25.6078 75.3094C25.6078 73.2854 27.2622 71.6486 29.2686 71.6486ZM29.2686 69.7478C26.2062 69.7478 23.7246 72.2294 23.7246 75.2918C23.7246 78.3542 26.2062 80.8358 29.2686 80.8358C32.331 80.8358 34.8126 78.3542 34.8126 75.2918C34.8302 72.247 32.3486 69.7478 29.2686 69.7478Z" fill="#455963"/>
<path d="M32.2959 71.9478C32.1551 71.9478 32.0143 71.895 31.8911 71.807C31.6271 71.5782 31.5919 71.191 31.8207 70.927L32.5951 70.0118C35.8511 66.175 36.7311 65.1542 36.7311 61.6342V52.0774C36.7311 51.7254 37.0127 51.4438 37.3647 51.4438C37.7167 51.4438 37.9983 51.7254 37.9983 52.0774V61.6342C37.9983 65.5942 36.8719 66.9142 33.5631 70.8214L32.7887 71.7366C32.6479 71.8598 32.4719 71.9478 32.2959 71.9478Z" fill="#455963"/>
<path d="M66.0704 71.983C68.0944 71.983 69.7312 73.6198 69.7312 75.6438C69.7312 77.6678 68.0944 79.3046 66.0704 79.3046C64.0464 79.3046 62.4096 77.6678 62.4096 75.6438C62.4096 73.6198 64.064 71.983 66.0704 71.983ZM66.0704 70.0998C63.008 70.0998 60.5264 72.5814 60.5264 75.6438C60.5264 78.7062 63.008 81.1878 66.0704 81.1878C69.1328 81.1878 71.6144 78.7062 71.6144 75.6438C71.632 72.5814 69.1504 70.0998 66.0704 70.0998Z" fill="#455963"/>
<path d="M63.6062 71.9477C63.4302 71.9477 63.2542 71.8773 63.131 71.719L62.3566 70.8037C59.0302 66.8965 57.9214 65.5766 57.9214 61.6166V52.0597C57.9214 51.7077 58.203 51.4261 58.555 51.4261C58.907 51.4261 59.1886 51.7077 59.1886 52.0597V61.6166C59.1886 65.119 60.0686 66.1573 63.3246 69.9941L64.099 70.9093C64.3278 71.1733 64.2926 71.5781 64.0286 71.7893C63.8878 71.8949 63.747 71.9477 63.6062 71.9477Z" fill="#455963"/>
<path d="M48.0127 73.4614C50.0367 73.4614 51.6736 75.0982 51.6736 77.1222C51.6736 79.1462 50.0367 80.783 48.0127 80.783C45.9887 80.783 44.3519 79.1462 44.3519 77.1222C44.3519 75.0982 45.9887 73.4614 48.0127 73.4614ZM48.0127 71.5782C44.9503 71.5782 42.4688 74.0598 42.4688 77.1222C42.4688 80.1846 44.9503 82.6662 48.0127 82.6662C51.0751 82.6662 53.5567 80.1846 53.5567 77.1222C53.5567 74.0598 51.0751 71.5782 48.0127 71.5782Z" fill="#455963"/>
<path d="M48.0125 72.2117C47.6605 72.2117 47.3789 71.9301 47.3789 71.5781V52.0597C47.3789 51.7077 47.6605 51.4261 48.0125 51.4261C48.3645 51.4261 48.6461 51.7077 48.6461 52.0597V71.5781C48.6285 71.9301 48.3469 72.2117 48.0125 72.2117Z" fill="#455963"/>
</svg>
