<svg width="86" height="87" viewBox="0 0 86 87" fill="none" xmlns="http://www.w3.org/2000/svg">
<path d="M63.9152 49.7358V50.5442V76.8774C63.9152 79.079 62.4016 80.885 60.5612 80.885H24.6992C22.8416 80.885 21.3452 79.0962 21.3452 76.8774V25.0194" stroke="#928F8F" stroke-width="2" stroke-miterlimit="10"/>
<path d="M21.3452 25.0194V12.945C21.3452 9.81458 22.8588 7.26898 24.6992 7.26898H60.544C62.4016 7.26898 63.898 9.81458 63.898 12.945V23.6606V23.9014V34.3074V35.4254" stroke="#928F8F" stroke-width="2" stroke-miterlimit="10"/>
<path d="M63.21 68.157H21.9644V69.5158H63.21V68.157Z" fill="#928F8F"/>
<path d="M43.9459 76.6882C43.1031 76.6882 42.3635 76.3786 41.7787 75.7938C41.1767 75.1918 40.8843 74.4694 40.8843 73.6266C40.8843 72.7838 41.1939 72.0442 41.7787 71.4594C42.9827 70.2554 44.9263 70.2726 46.1303 71.4594C46.7323 72.0614 47.0247 72.7838 47.0247 73.6266C47.0247 74.4694 46.7151 75.209 46.1303 75.7938C45.5283 76.3958 44.7887 76.6882 43.9459 76.6882ZM43.9459 72.0442C43.4987 72.0442 43.1547 72.199 42.8279 72.5086C42.5183 72.8182 42.3635 73.1794 42.3635 73.6266C42.3635 74.0738 42.5011 74.4178 42.8279 74.7446C43.4643 75.381 44.4275 75.3638 45.0467 74.7446C45.3563 74.435 45.5111 74.0738 45.5111 73.6266C45.5111 73.1794 45.3563 72.8354 45.0467 72.5086C44.7371 72.199 44.3931 72.0442 43.9459 72.0442Z" fill="#928F8F"/>
<path d="M38.3214 66.0414C37.9946 66.0414 37.771 65.8178 37.6678 65.6114L37.6162 65.5254V65.4222C37.6162 61.0018 41.383 58.9722 41.555 58.8862L42.2258 58.5422L42.1742 63.7022H41.727C40.0242 63.7022 39.577 64.5622 39.2674 65.1986C39.1986 65.3362 39.1298 65.4738 39.061 65.577C38.8374 65.8694 38.5966 66.0414 38.3214 66.0414ZM41.3142 60.0902C40.4198 60.761 38.889 62.2058 38.5794 64.545C38.9406 63.8914 39.5942 62.9454 41.2798 62.8078L41.3142 60.0902Z" fill="#455963"/>
<path d="M49.5703 66.0414C49.2951 66.0414 49.0543 65.8866 48.8479 65.577C48.7791 65.4738 48.7103 65.3362 48.6415 65.1986C48.3147 64.5622 47.8847 63.7022 46.1819 63.7022H45.7347L45.6831 58.5422L46.3539 58.8862C46.5087 58.9722 50.2927 61.0018 50.2927 65.4222V65.5254L50.2411 65.6114C50.1207 65.8006 49.8971 66.0414 49.5703 66.0414ZM46.6119 62.8078C48.2975 62.9454 48.9511 63.8914 49.3123 64.545C49.0027 62.2058 47.4719 60.761 46.5775 60.0902L46.6119 62.8078Z" fill="#455963"/>
<path d="M39.9552 60.331C39.938 60.2794 39.9208 60.2106 39.9208 60.159C39.5768 58.6454 39.4048 56.9254 39.4048 55.1882C39.4048 53.5542 39.6628 51.9202 40.1444 50.3034L40.2476 49.9938H47.678L47.7812 50.3034C48.28 51.9202 48.5208 53.5714 48.5208 55.1882C48.5208 56.9426 48.3316 58.6798 47.9876 60.1934L47.9532 60.3138L47.076 60.1074L47.0932 60.0042C47.42 58.5422 47.6092 56.8738 47.6092 55.1882C47.6092 53.7606 47.4028 52.2986 46.99 50.871H40.9012C40.4884 52.2986 40.282 53.7434 40.282 55.1882C40.282 56.8566 40.454 58.525 40.7808 59.9698C40.798 60.0214 40.8152 60.0902 40.8152 60.1418L39.9552 60.331Z" fill="#455963"/>
<path d="M46.1302 62.7906H43.9458H41.7614C41.7098 62.7906 41.6582 62.8422 41.6582 62.9282V63.5474C41.6582 63.6162 41.7098 63.685 41.7614 63.685H43.9458H46.1302C46.1818 63.685 46.2334 63.6162 46.2334 63.5474V62.9282C46.2334 62.8422 46.1818 62.7906 46.1302 62.7906Z" fill="#455963"/>
<path d="M43.9459 56.7362C42.5011 56.7362 41.3315 55.5666 41.3315 54.1218C41.3315 52.677 42.5011 51.5074 43.9459 51.5074C45.3907 51.5074 46.5603 52.677 46.5603 54.1218C46.5603 55.5666 45.3907 56.7362 43.9459 56.7362ZM43.9459 52.2126C42.8967 52.2126 42.0367 53.0726 42.0367 54.1218C42.0367 55.171 42.8967 56.031 43.9459 56.031C44.9951 56.031 45.8551 55.171 45.8551 54.1218C45.8551 53.0726 44.9951 52.2126 43.9459 52.2126Z" fill="#455963"/>
<path d="M43.9459 53.279C44.4103 53.279 44.7887 53.6574 44.7887 54.1218C44.7887 54.5862 44.4103 54.9646 43.9459 54.9646C43.4815 54.9646 43.1032 54.5862 43.1032 54.1218C43.1032 53.6574 43.4815 53.279 43.9459 53.279ZM43.9459 52.5738C43.0859 52.5738 42.3979 53.2618 42.3979 54.1218C42.3979 54.9818 43.0859 55.6698 43.9459 55.6698C44.8059 55.6698 45.4939 54.9818 45.4939 54.1218C45.4939 53.2618 44.8059 52.5738 43.9459 52.5738Z" fill="#455963"/>
<path d="M47.9363 50.871H39.9727L40.1447 50.2862C41.0735 47.2418 42.8279 44.6618 43.9459 44.6618C45.0811 44.6618 46.8183 47.2418 47.7471 50.2862L47.9363 50.871ZM41.1767 49.9766H46.6979C45.7347 47.1902 44.3243 45.6078 43.9287 45.5562C43.5503 45.5906 42.1399 47.1902 41.1767 49.9766Z" fill="#455963"/>
<path d="M44.0492 60.3998H43.946H43.8256C43.8084 60.3998 43.8084 60.3998 43.7912 60.3998C43.774 60.3998 43.7396 60.417 43.7224 60.4342C43.602 60.4686 43.3784 60.589 43.3784 60.9158L43.7052 65.0954V65.3018V65.4566C43.7052 65.5082 43.7396 65.5426 43.774 65.5598C43.7912 65.577 43.8084 65.577 43.8256 65.577H43.9288H44.0492C44.118 65.577 44.1696 65.5254 44.1696 65.4566V65.3018V65.0782L44.4964 60.9158C44.4964 60.4858 44.1352 60.4342 44.0664 60.417C44.0836 60.3998 44.0664 60.3998 44.0492 60.3998Z" fill="#455963"/>
<path d="M56.9319 48.7898C55.8139 48.7898 55.0571 48.033 54.8507 46.7258C54.7819 46.3818 53.9391 42.2022 56.3127 38.2978C57.4823 36.3714 58.9615 35.9586 59.9763 35.9586C61.5931 35.9586 62.9003 36.939 62.9519 36.9734C63.0895 37.0766 63.3991 37.1798 63.5711 37.1798H64.5171C64.6891 37.1798 64.9987 37.0766 65.1363 36.9734C65.1879 36.939 66.4951 35.9586 68.1119 35.9586C69.1439 35.9586 70.6059 36.3714 71.7927 38.2978C74.1663 42.2022 73.3407 46.3818 73.2547 46.7258C73.0311 48.033 72.2743 48.7898 71.1735 48.7898C71.1047 48.7898 71.0359 48.7898 70.9671 48.7726C69.8147 48.6694 67.9055 46.485 67.3379 45.8142C67.2519 45.711 67.0111 45.5906 66.8735 45.5906H61.1803C61.0427 45.5906 60.8019 45.711 60.7159 45.8142C60.1655 46.485 58.2563 48.6694 57.1039 48.7726C57.0695 48.7898 57.0007 48.7898 56.9319 48.7898ZM59.9935 37.0078C58.8927 37.0078 57.9467 37.627 57.2071 38.8482C54.9883 42.4946 55.8655 46.485 55.8655 46.5194V46.5538C56.0547 47.7578 56.7083 47.7578 56.9319 47.7578C56.9663 47.7578 57.0179 47.7578 57.0523 47.7578C57.5339 47.7234 58.9443 46.3818 59.9591 45.1778C60.2515 44.8338 60.7675 44.593 61.2147 44.593H66.9079C67.3551 44.593 67.8883 44.8338 68.1635 45.1778C69.1783 46.399 70.5887 47.7234 71.0703 47.7578C71.1047 47.7578 71.1563 47.7578 71.1907 47.7578C71.4143 47.7578 72.0507 47.7578 72.2399 46.5538V46.5194C72.2571 46.485 73.0999 42.4602 70.8983 38.8482C70.1587 37.627 69.2127 37.0078 68.1119 37.0078C66.8391 37.0078 65.7727 37.799 65.7555 37.8162C65.4287 38.057 64.9127 38.229 64.4999 38.2462H63.5539C63.1411 38.2462 62.6251 38.0742 62.2983 37.8334C62.3327 37.8162 61.2491 37.0078 59.9935 37.0078Z" fill="#455963"/>
<path d="M60.0622 43.4922H60.045C59.4774 43.475 59.185 43.1654 59.1506 43.131L59.0474 43.0106V42.1334H58.1358L58.0154 42.013C57.9638 41.9614 57.7574 41.7206 57.723 41.2218C57.6714 40.7058 57.9122 40.3102 57.9466 40.2586L58.067 40.0694H59.099V39.0202L59.3226 38.8998C59.357 38.8826 59.6666 38.7278 60.0966 38.7278H60.1482C60.5954 38.745 60.9222 38.8998 60.9566 38.917L61.1802 39.0374V40.0694H62.109L62.2294 40.2242C62.2638 40.2586 62.5218 40.6026 62.539 41.0326C62.5562 41.4626 62.3154 41.8754 62.2982 41.927L62.1778 42.1334H61.1286V43.0966L60.9566 43.217C60.9222 43.2514 60.5782 43.4922 60.0622 43.4922ZM59.8902 42.6494C59.9246 42.6666 59.9934 42.6666 60.0622 42.6666V43.0794V42.6666C60.1482 42.6666 60.2342 42.6494 60.2858 42.6322V41.2906H61.6446C61.679 41.2046 61.6962 41.1358 61.679 41.067C61.679 41.0154 61.6618 40.9466 61.6274 40.895H60.303V39.5878C60.2342 39.5706 60.1654 39.5706 60.0794 39.5534H60.0622C60.0106 39.5534 59.959 39.5534 59.9074 39.5706V40.895H58.5486C58.5314 40.9638 58.5142 41.0498 58.5314 41.1358C58.5314 41.2046 58.5486 41.2562 58.5658 41.2906H59.873V42.6494H59.8902Z" fill="#455963"/>
<path d="M67.5272 41.755C67.7164 41.755 67.8712 41.9098 67.8712 42.099C67.8712 42.2882 67.7164 42.443 67.5272 42.443C67.338 42.443 67.1832 42.2882 67.1832 42.099C67.1832 41.8926 67.338 41.755 67.5272 41.755ZM67.5272 41.1186C66.994 41.1186 66.564 41.5486 66.564 42.0818C66.564 42.615 66.994 43.045 67.5272 43.045C68.0604 43.045 68.4904 42.615 68.4904 42.0818C68.4904 41.5486 68.0604 41.1186 67.5272 41.1186Z" fill="#455963"/>
<path d="M67.5272 39.089C67.7164 39.089 67.8712 39.2438 67.8712 39.433C67.8712 39.6222 67.7164 39.777 67.5272 39.777C67.338 39.777 67.1832 39.6222 67.1832 39.433C67.1832 39.2438 67.338 39.089 67.5272 39.089ZM67.5272 38.4698C66.994 38.4698 66.564 38.8998 66.564 39.433C66.564 39.9662 66.994 40.3962 67.5272 40.3962C68.0604 40.3962 68.4904 39.9662 68.4904 39.433C68.4904 38.8998 68.0604 38.4698 67.5272 38.4698Z" fill="#455963"/>
<path d="M69.9178 40.5166C70.107 40.5166 70.2618 40.6714 70.2618 40.8606C70.2618 41.0498 70.107 41.2046 69.9178 41.2046C69.7286 41.2046 69.5738 41.0498 69.5738 40.8606C69.591 40.6714 69.7286 40.5166 69.9178 40.5166ZM69.9178 39.8974C69.3846 39.8974 68.9546 40.3274 68.9546 40.8606C68.9546 41.3938 69.3846 41.8238 69.9178 41.8238C70.451 41.8238 70.881 41.3938 70.881 40.8606C70.881 40.3274 70.451 39.8974 69.9178 39.8974Z" fill="#455963"/>
<path d="M36.6875 22.4222C36.5671 22.4222 36.4639 22.405 36.3435 22.3878C36.2575 22.405 36.1887 22.405 36.1027 22.405H33.6259C33.4367 22.405 33.2819 22.2502 33.2819 22.061C33.2819 21.8718 33.4367 21.717 33.6259 21.717H36.0855C36.1543 21.717 36.2231 21.6998 36.3091 21.6998C36.3435 21.6998 36.3951 21.6998 36.4295 21.6998C36.5155 21.717 36.6015 21.7342 36.7047 21.7342C37.4615 21.7342 38.0635 21.1322 38.0635 20.3754C38.0635 19.6186 37.4615 19.0166 36.7047 19.0166C36.6359 19.0166 36.5671 19.0166 36.4983 19.0338C36.3951 19.051 36.2919 19.0166 36.2231 18.9478C36.1543 18.879 36.1027 18.793 36.1027 18.6898V18.6726C36.1027 17.9158 35.5007 17.3138 34.7439 17.3138C34.5031 17.3138 34.2623 17.3826 34.0559 17.503C34.0387 17.5202 34.0215 17.5202 34.0043 17.5202C33.8151 17.589 33.6431 17.7094 33.4883 17.8642C33.3679 17.9674 33.1959 18.0018 33.0755 17.9158C32.9207 17.8126 32.7315 17.7782 32.5595 17.7782C32.1295 17.7782 31.7511 18.0534 31.6135 18.449C31.5447 18.621 31.3555 18.7242 31.1835 18.6554C31.0115 18.5866 30.9083 18.3974 30.9771 18.2254C31.2179 17.5546 31.8543 17.0902 32.5767 17.0902C32.8003 17.0902 33.0239 17.1418 33.2303 17.2106C33.3851 17.0902 33.5743 16.987 33.7463 16.901C34.0559 16.729 34.3999 16.643 34.7611 16.643C35.7759 16.643 36.6187 17.3826 36.7735 18.3458C37.8743 18.3802 38.7687 19.2746 38.7687 20.3926C38.7343 21.4934 37.8227 22.4222 36.6875 22.4222Z" fill="#455963"/>
<path d="M27.2963 23.3166C26.1611 23.3166 25.2495 22.405 25.2495 21.2698C25.2495 20.1518 26.1439 19.2574 27.2447 19.223C27.4167 18.2598 28.2423 17.5202 29.2571 17.5202C29.6183 17.5202 29.9623 17.6062 30.2719 17.7782C30.4611 17.847 30.6331 17.9502 30.7879 18.0878C30.9943 18.0018 31.2179 17.9674 31.4415 17.9674C32.3703 17.9674 33.1271 18.7242 33.1271 19.653C33.1271 19.7046 33.1271 19.739 33.1271 19.7906C33.8151 20.255 34.0731 20.9258 34.0731 21.3902C34.1247 22.7662 32.9551 23.2478 32.3359 23.3166C32.3187 23.3166 32.3187 23.3166 32.3015 23.3166H27.8983C27.7951 23.3166 27.7091 23.2994 27.6403 23.2994C27.5199 23.3166 27.4167 23.3166 27.2963 23.3166ZM27.2963 19.911C26.5395 19.911 25.9375 20.513 25.9375 21.2698C25.9375 22.0266 26.5395 22.6286 27.2963 22.6286C27.3823 22.6286 27.4855 22.6114 27.5715 22.5942C27.6059 22.5942 27.6575 22.577 27.6919 22.5942C27.7607 22.6114 27.8467 22.6114 27.9155 22.6114H32.2843C32.4563 22.5942 33.4195 22.4222 33.3851 21.3902C33.3851 21.1322 33.2131 20.599 32.5767 20.255C32.4391 20.1862 32.3703 20.0314 32.4047 19.8766C32.4219 19.8078 32.4219 19.7218 32.4219 19.653C32.4219 19.1026 31.9747 18.6554 31.4243 18.6554C31.2351 18.6554 31.0631 18.707 30.9083 18.793C30.7707 18.879 30.5987 18.8618 30.4955 18.7414C30.3407 18.5866 30.1687 18.4834 29.9795 18.3974C29.9623 18.3974 29.9451 18.3802 29.9279 18.3802C29.7215 18.2598 29.4807 18.191 29.2399 18.191C28.4831 18.191 27.8811 18.793 27.8811 19.5498C27.8811 19.653 27.8467 19.7562 27.7607 19.825C27.6919 19.8938 27.5887 19.9282 27.4855 19.911C27.4339 19.9282 27.3651 19.911 27.2963 19.911Z" fill="#455963"/>
<path d="M57.6201 20.6678C57.5341 20.6678 57.4653 20.6678 57.3793 20.6506C57.3277 20.6506 57.2761 20.6678 57.2073 20.6678H55.4873C55.2981 20.6678 55.1433 20.513 55.1433 20.3238C55.1433 20.1346 55.2981 19.9798 55.4873 19.9798H57.1901C57.2245 19.9798 57.2761 19.9798 57.3277 19.9626C57.3621 19.9626 57.4137 19.9626 57.4481 19.9626C57.4997 19.9798 57.5513 19.9798 57.6201 19.9798C58.0845 19.9798 58.4457 19.6014 58.4457 19.1542C58.4457 18.707 58.0673 18.3286 57.6201 18.3286C57.5857 18.3286 57.5341 18.3286 57.4997 18.3458C57.3965 18.363 57.2933 18.3286 57.2245 18.2598C57.1557 18.191 57.1041 18.0878 57.1041 17.9846C57.1041 17.5202 56.7257 17.159 56.2785 17.159C56.1237 17.159 55.9861 17.1934 55.8657 17.2794C55.8485 17.2966 55.8313 17.2966 55.8141 17.2966C55.6937 17.3482 55.5905 17.417 55.5045 17.503C55.3841 17.6062 55.2121 17.6406 55.0917 17.5546C55.0057 17.503 54.9025 17.4686 54.7821 17.4686C54.5413 17.4686 54.3177 17.6234 54.2317 17.8642C54.1629 18.0362 53.9737 18.1394 53.8017 18.0706C53.6297 18.0018 53.5265 17.8126 53.5953 17.6406C53.7673 17.1246 54.2489 16.7806 54.7993 16.7806C54.9541 16.7806 55.0917 16.7978 55.2293 16.8494C55.3325 16.7806 55.4357 16.7118 55.5561 16.6602C55.7797 16.5398 56.0377 16.471 56.2957 16.471C57.0181 16.471 57.6201 16.9698 57.7749 17.6578C58.5489 17.7266 59.1681 18.3802 59.1681 19.1714C59.1337 19.9798 58.4457 20.6678 57.6201 20.6678Z" fill="#455963"/>
<path d="M51.1186 21.287C50.2758 21.287 49.605 20.599 49.605 19.7734C49.605 18.9822 50.2242 18.3286 50.9982 18.2598C51.153 17.589 51.755 17.073 52.4774 17.073C52.7354 17.073 52.9934 17.1418 53.217 17.2622C53.3374 17.3138 53.4406 17.3654 53.5438 17.4514C53.6814 17.3998 53.819 17.3826 53.9738 17.3826C54.679 17.3826 55.2466 17.9502 55.2466 18.6554C55.2466 18.6726 55.2466 18.6726 55.2466 18.6898C55.7282 19.0338 55.9002 19.5154 55.9002 19.8422C55.9346 20.8742 55.0746 21.2354 54.6102 21.2698C54.593 21.2698 54.593 21.2698 54.5758 21.2698H51.5314C51.4626 21.2698 51.411 21.2698 51.3594 21.2526C51.2734 21.287 51.2046 21.287 51.1186 21.287ZM51.1186 18.9306C50.6542 18.9306 50.293 19.309 50.293 19.7562C50.293 20.2034 50.6714 20.5818 51.1186 20.5818C51.1702 20.5818 51.2218 20.5818 51.2906 20.5646C51.325 20.5646 51.3766 20.5646 51.411 20.5646C51.4626 20.5646 51.5142 20.5818 51.5658 20.5818H54.5758C54.7134 20.5646 55.2638 20.4614 55.2294 19.8422C55.2294 19.8078 55.2294 19.4122 54.7306 19.137C54.593 19.0682 54.5242 18.9134 54.5586 18.7586C54.5758 18.707 54.5758 18.6726 54.5758 18.621C54.5758 18.2942 54.3178 18.0362 53.991 18.0362C53.8878 18.0362 53.7846 18.0706 53.6814 18.1222C53.5438 18.2082 53.3718 18.191 53.2686 18.0706C53.1654 17.9846 53.0622 17.8986 52.959 17.8642C52.9418 17.8642 52.9246 17.847 52.9074 17.847C52.787 17.7782 52.6322 17.7266 52.4946 17.7266C52.0302 17.7266 51.669 18.105 51.669 18.5522C51.669 18.6554 51.6174 18.7586 51.5486 18.8274C51.4798 18.8962 51.3766 18.9306 51.2734 18.9134C51.2046 18.9306 51.153 18.9306 51.1186 18.9306Z" fill="#455963"/>
<path d="M41.2454 16.9698C40.2134 16.9698 39.3706 16.127 39.3706 15.095C39.3706 14.0802 40.179 13.2546 41.1766 13.2202C41.3314 12.343 42.1054 11.6894 43.017 11.6894C43.3438 11.6894 43.6534 11.7754 43.9458 11.9302C44.1178 11.999 44.2554 12.085 44.4102 12.2054C44.5994 12.1366 44.7886 12.1022 44.995 12.1022C45.855 12.1022 46.543 12.8074 46.543 13.6502C46.543 13.6846 46.543 13.719 46.543 13.7534C47.1622 14.1834 47.403 14.8026 47.403 15.2154C47.4546 16.4882 46.371 16.9354 45.8034 16.987C45.7862 16.987 45.7862 16.987 45.769 16.987H41.7958C41.7098 16.987 41.6238 16.9698 41.555 16.9698C41.4518 16.9526 41.3486 16.9698 41.2454 16.9698ZM41.2454 13.891C40.5918 13.891 40.0586 14.4242 40.0586 15.0778C40.0586 15.7314 40.5918 16.2646 41.2454 16.2646C41.3314 16.2646 41.4002 16.2646 41.4862 16.2474C41.5206 16.2474 41.5722 16.2302 41.6066 16.2474C41.6754 16.2646 41.7442 16.2646 41.813 16.2646H45.7518C45.9066 16.2474 46.7494 16.0926 46.715 15.1982C46.715 14.9574 46.5602 14.5102 46.0098 14.2006C45.8722 14.1318 45.8034 13.977 45.8378 13.8222C45.855 13.7534 45.855 13.6846 45.855 13.633C45.855 13.1514 45.4594 12.773 44.995 12.773C44.8402 12.773 44.6854 12.8246 44.5478 12.8934C44.4102 12.9794 44.2382 12.9622 44.135 12.8418C43.9974 12.7042 43.8426 12.6182 43.6878 12.5494C43.6706 12.5494 43.6534 12.5322 43.6362 12.5322C43.447 12.429 43.2406 12.3774 43.0342 12.3774C42.3806 12.3774 41.8474 12.9106 41.8474 13.5642C41.8474 13.6674 41.7958 13.7706 41.727 13.8394C41.6582 13.9082 41.555 13.9426 41.4518 13.9254C41.3658 13.891 41.297 13.891 41.2454 13.891Z" fill="#455963"/>
</svg>
